# xmcd
#
# Track frame offsets:
#	150
#	14881
#	27559
#	41975
#	48998
#	63681
#	73658
#	79181
#	90013
#	92612
#	99303
#	117178
#	135882
#	145735
#	158007
#	168990
#	182860
#
# Disc length: 2558 seconds
#
# Revision: 1
# Processed by: cddbd v1.5.2PL0 Copyright (c) Steve Scherf et al.
# Submitted via: audiograbber 1.83.01
#
DISCID=df09fc11
DTITLE=Diverse artiesten - Kruimeltje de musical
DYEAR=2000
DGENRE=Musical
TTITLE0=Alles wordt anders (ouverture)
TTITLE1=Het schuim van de straat
TTITLE2=Laat om mij geen traan
TTITLE3='t Is me weer eens overkomen (1)
TTITLE4=Op de prairie (1)
TTITLE5=Nieuwe kleren
TTITLE6='t Is me weer eens overkomen (2)
TTITLE7=Wie zijn kinderen liefheeft
TTITLE8=Alles wordt anders (2)
TTITLE9=De bevrijding van de honden
TTITLE10=Het sneeuwt in Rotterdam
TTITLE11=Het lichtje in de verte
TTITLE12=Niet van dat ordinaire
TTITLE13=Vader Keijzer is van ijzer
TTITLE14=Op de prairie (2)
TTITLE15=Hoe zeg ik jou
TTITLE16=Alles wordt anders (finale)
EXTD=
EXTT0=
EXTT1=
EXTT2=
EXTT3=
EXTT4=
EXTT5=
EXTT6=
EXTT7=
EXTT8=
EXTT9=
EXTT10=
EXTT11=
EXTT12=
EXTT13=
EXTT14=
EXTT15=
EXTT16=
PLAYORDER=
